<?xml version="1.0" encoding="UTF-8"?>
<svg width="471px" height="454px" viewBox="0 0 471 454" version="1.1" xmlns="http://www.w3.org/2000/svg" xmlns:xlink="http://www.w3.org/1999/xlink">
    <title>Group</title>
    <g id="Page-1" stroke="none" stroke-width="1" fill="none" fill-rule="evenodd">
        <g id="Group" transform="translate(-0.386251, -0.000000)">
            <path d="M223.20432,55.0180947 C220.166012,55.1924285 217.194532,55.9611769 214.466268,57.2787067 L96.1362773,112.404456 C89.9569991,115.276885 85.4658743,120.741759 83.9263634,127.253981 L54.9623244,250.975824 C53.5820732,256.782901 54.6968914,262.869962 58.1475193,267.847456 C58.5509773,268.448903 58.9756699,269.029611 59.4215972,269.589579 L141.174933,368.869851 C145.496181,374.054741 151.983361,377.030868 158.820913,377 L289.94477,377 C296.803557,377.010128 303.301354,373.888825 307.611985,368.776523 L389.322852,269.475511 C393.612247,264.290622 395.215462,257.446567 393.569778,250.955085 L364.414627,127.129544 C362.875117,120.617322 358.362757,115.152448 352.204714,112.280019 L234.065834,57.2890765 C230.661558,55.649185 226.890873,54.8684227 223.098146,55.0180947 L223.20432,55.0180947 Z" id="Path" fill="#3D6FDE" fill-rule="nonzero"></path>
            <path d="M333.468194,153 C329.765621,153.243682 326.959765,156.212992 327.152607,159.678692 L327.152607,161.37544 C327.326165,163.297821 327.634713,165.20215 328.039682,167.088429 C328.631038,170.700553 328.844176,174.358094 328.676062,178.008993 C328.309661,179.209352 327.57686,180.292383 326.57408,181.122707 L326.429448,183.66783 C322.524391,183.974689 318.648259,184.534255 314.829981,185.346528 C298.766212,188.740026 284.139119,196.53785 272.848199,207.774297 L270.534091,206.240003 C269.261331,206.601013 267.892151,206.465635 266.725454,205.878993 C263.595768,203.710748 260.699104,201.262373 258.076475,198.568533 C256.759091,197.095135 255.352231,195.693904 253.862869,194.371787 L252.435836,193.306807 C251.163076,192.350129 249.601053,191.799589 247.971535,191.727387 C245.99905,191.629455 244.095679,192.421278 242.851571,193.857348 C240.672452,196.718355 241.385969,200.680444 244.432878,202.729177 L245.76349,203.721956 C247.4763,204.78863 249.2534,205.761965 251.085939,206.637114 C254.499249,208.41509 257.719716,210.499925 260.708773,212.954796 C261.47339,213.975374 261.91761,215.17588 261.991175,216.420495 L264.093156,218.225547 C252.744383,234.164155 248.087241,253.469184 250.99916,272.431253 L248.299367,273.153274 C247.595493,274.200204 246.660207,275.093704 245.541721,275.752548 C241.77502,276.694058 237.919213,277.289534 234.029033,277.530524 C231.96449,277.569776 229.904084,277.720447 227.858077,277.981787 L226.151422,278.342798 L225.95858,278.342798 C223.543318,278.65655 221.522577,280.216501 220.733773,282.376191 C219.94497,284.535882 220.52252,286.92729 222.22708,288.559391 C223.947707,290.183291 226.499919,290.759569 228.822289,290.048559 L228.947637,290.048559 L230.683218,289.868053 C232.640568,289.326538 234.568991,288.658669 236.449204,287.900547 C240.064998,286.546758 243.815782,285.508853 247.653345,284.831959 C248.983958,284.904161 250.256717,285.328348 251.336634,286.050369 L254.22927,285.599106 C260.496646,303.803053 273.667779,319.227221 291.255002,328.947425 L290.078664,331.248866 C290.618623,332.304821 290.821107,333.478105 290.657191,334.642363 C289.066242,338.090012 287.118534,341.393257 284.842994,344.497946 C283.594681,346.03809 282.442147,347.644235 281.391116,349.308409 L280.571536,350.932956 C279.35908,352.901625 279.428108,355.340353 280.750233,357.246166 C282.072357,359.151979 284.424351,360.203102 286.838912,359.96724 C289.25941,359.712424 291.321025,358.204937 292.171003,356.068328 L292.971299,354.534034 C293.7041,352.728983 294.321196,350.88783 294.822586,349.028626 C296.529241,345.084588 297.454884,340.851742 299.788277,338.234417 C300.550913,337.563362 301.511919,337.123035 302.545922,336.97088 L303.99224,334.506985 C323.056973,341.366029 344.152422,341.414221 363.252696,334.642363 L364.535098,336.943804 C365.846426,337.12431 367.022765,337.801204 367.813418,338.793983 C369.626136,342.025025 371.091738,345.409497 372.210224,348.902273 C372.72013,350.772506 373.344688,352.613699 374.080795,354.416706 L374.881091,355.951 C375.739256,358.07926 377.80087,359.576643 380.216484,359.82618 C382.632098,360.075718 384.992945,359.035183 386.326285,357.133309 C387.646655,355.21993 387.706288,352.774377 386.480558,350.806602 L385.641694,349.182056 C384.590574,347.523727 383.43803,345.923593 382.189816,344.389643 C379.972129,341.393257 378.06299,338.198315 376.404545,334.849944 C376.091829,333.613119 376.328417,332.31046 377.060209,331.239841 C376.648823,330.452633 376.291343,329.641731 375.989934,328.812046 C393.538589,319.01964 406.651869,303.541321 412.851751,285.310298 L415.590112,285.76156 C416.573608,284.922211 417.865652,284.479974 419.186622,284.516075 C423.014543,285.201994 426.765327,286.321127 430.390763,287.584663 C432.270976,288.396936 434.1994,289.082856 436.15675,289.660472 C436.619571,289.777801 437.29452,289.877079 437.815194,289.994407 L437.940542,289.994407 C440.261395,290.69596 442.806522,290.114312 444.520846,288.490583 C446.235169,286.866853 446.826446,284.477844 446.049563,282.313912 C445.254789,280.151818 443.225112,278.594239 440.804251,278.288646 L438.93368,277.873484 C436.887673,277.612144 434.827267,277.461473 432.762724,277.422221 C428.867309,277.187564 425.010461,276.591897 421.250036,275.644245 C420.092981,275.039553 419.12877,274.137027 418.473106,273.04497 L415.869734,272.32295 C418.645564,253.369825 413.889977,234.122411 402.505758,218.234572 L404.781298,216.267066 C404.684877,215.030605 405.118772,213.80317 405.976921,212.855518 C408.937051,210.47285 412.147876,208.369964 415.522617,206.573938 C417.354952,205.698438 419.132031,204.725114 420.845067,203.658779 L422.252816,202.593798 C424.36822,201.36482 425.540847,199.107354 425.26703,196.791026 C424.993214,194.474698 423.321691,192.5118 420.970414,191.745437 C418.621131,190.980025 416.011033,191.545171 414.2595,193.198504 L412.832467,194.263484 C411.343406,195.585881 409.936563,196.987095 408.618861,198.46023 C406.073342,201.185858 403.257844,203.667804 400.201292,205.888018 C398.967857,206.358068 397.618497,206.495626 396.305877,206.285129 L393.866421,207.909676 C379.788929,194.10103 360.822883,185.527034 340.497298,183.812234 C340.497298,182.909708 340.371951,181.55592 340.352667,181.131732 C339.263107,180.427762 338.50138,179.353756 338.250685,178.135346 C338.116946,174.490532 338.362369,170.842184 338.983486,167.241859 C339.398097,165.346554 339.68736,163.45125 339.870561,161.52887 L339.870561,159.723818 C340.063403,156.258119 337.267189,153.288808 333.554973,153.045126 L333.468194,153 Z M325.426668,199.624488 L323.498244,231.149718 L323.353613,231.149718 C323.257192,233.099174 322.032643,234.759822 320.15243,235.698449 C318.272217,236.637076 316.044887,236.357292 314.367159,235.211085 L286.742491,216.889809 C295.535124,208.80612 306.565726,203.18259 318.590406,200.653368 C320.846662,200.202105 323.122202,199.859145 325.407384,199.624488 L325.426668,199.624488 Z M341.509721,199.624488 C356.021108,201.312212 369.529715,207.413287 379.981771,216.989087 L352.61744,235.193034 C350.93007,236.45657 348.615962,236.709278 346.658612,235.842853 C344.701262,234.976428 343.447786,233.135275 343.41886,231.113617 L341.509721,199.624488 Z M276.714689,228.748999 L301.977037,249.850055 L301.977037,249.985434 C303.548703,251.26702 304.233293,253.261603 303.770471,255.165932 C303.30765,257.070262 301.745627,258.57748 299.749708,259.09192 L299.749708,259.182173 L267.332908,267.909598 C265.728818,254.239111 269.033061,240.457819 276.724331,228.739974 L276.714689,228.748999 Z M390.0385,228.748999 C397.713626,240.43671 401.107651,254.146078 399.699902,267.801295 L367.234891,259.046794 L367.234891,258.929465 C365.210046,258.415026 363.667308,256.907807 363.214128,255.003478 C362.760948,253.099148 363.435897,251.122616 365.007562,249.822979 L390.077068,228.821201 L390.0385,228.748999 Z M328.290377,251.492652 L338.626727,251.492652 L344.942315,259.001667 L342.647491,268.387937 L333.362131,272.566632 L324.057487,268.387937 L321.868727,259.001667 L328.290377,251.492652 Z M361.40141,277.106337 C361.835305,277.061211 362.365622,277.061211 362.703096,277.106337 L396.132318,282.386114 C391.31126,295.382487 381.794489,306.483555 369.375441,313.911343 L356.455003,284.633403 C355.734127,283.039434 355.885938,281.216953 356.86205,279.746833 C357.838161,278.276713 359.516763,277.342412 361.362841,277.241716 L361.40141,277.106337 Z M305.255357,277.241716 C307.145213,277.268792 308.890436,278.180343 309.922143,279.660485 C310.953849,281.140628 311.117765,282.999831 310.375322,284.624378 L310.375322,284.741716 L297.532021,313.78499 C285.238321,306.411353 275.904751,295.445663 270.93906,282.584669 L304.079019,277.322943 C304.44542,277.286842 304.821462,277.286842 305.197505,277.322943 L305.255357,277.241716 Z M333.256068,289.877079 C335.404453,289.81366 337.407587,290.889069 338.433885,292.656858 L338.559233,292.656858 L354.89298,320.247075 L348.365266,322.052127 C336.351188,324.624326 323.806792,324.019634 312.130187,320.301227 L328.521788,292.71101 C329.514926,291.086463 331.346928,290.093685 333.342847,290.048559 L333.256068,289.877079 Z" id="Shape" fill="#FFFFFF" fill-rule="nonzero" transform="translate(333.386251, 256.500000) rotate(16.000000) translate(-333.386251, -256.500000) "></path>
            <path d="M133.468194,185 C129.765621,185.243682 126.959765,188.212992 127.152607,191.678692 L127.152607,193.37544 C127.326165,195.297821 127.634713,197.20215 128.039682,199.088429 C128.631038,202.700553 128.844176,206.358094 128.676062,210.008993 C128.309661,211.209352 127.57686,212.292383 126.57408,213.122707 L126.429448,215.66783 C122.524391,215.974689 118.648259,216.534255 114.829981,217.346528 C98.7662121,220.740026 84.1391193,228.53785 72.8481993,239.774297 L70.534091,238.240003 C69.2613314,238.601013 67.8921507,238.465635 66.7254544,237.878993 C63.5957684,235.710748 60.6991044,233.262373 58.0764747,230.568533 C56.7590905,229.095135 55.3522306,227.693904 53.8628692,226.371787 L52.4358357,225.306807 C51.1630762,224.350129 49.6010531,223.799589 47.9715351,223.727387 C45.9990504,223.629455 44.095679,224.421278 42.8515706,225.857348 C40.6724519,228.718355 41.3859686,232.680444 44.4328779,234.729177 L45.7634901,235.721956 C47.4763002,236.78863 49.2533997,237.761965 51.0859392,238.637114 C54.4992489,240.41509 57.7197163,242.499925 60.7087729,244.954796 C61.4733902,245.975374 61.9176095,247.17588 61.9911745,248.420495 L64.0931562,250.225547 C52.7443835,266.164155 48.0872406,285.469184 50.9991602,304.431253 L48.2993672,305.153274 C47.5954925,306.200204 46.6602071,307.093704 45.5417214,307.752548 C41.7750202,308.694058 37.9192133,309.289534 34.0290327,309.530524 C31.9644898,309.569776 29.9040836,309.720447 27.8580773,309.981787 L26.1514224,310.342798 L25.95858,310.342798 C23.543318,310.65655 21.5225765,312.216501 20.7337732,314.376191 C19.9449699,316.535882 20.52252,318.92729 22.2270804,320.559391 C23.9477073,322.183291 26.4999193,322.759569 28.822289,322.048559 L28.9476366,322.048559 L30.6832178,321.868053 C32.6405677,321.326538 34.5689913,320.658669 36.4492043,319.900547 C40.0649985,318.546758 43.8157823,317.508853 47.6533453,316.831959 C48.9839575,316.904161 50.2567171,317.328348 51.3366343,318.050369 L54.2292696,317.599106 C60.4966463,335.803053 73.6677793,351.227221 91.2550023,360.947425 L90.0786639,363.248866 C90.6186225,364.304821 90.821107,365.478105 90.657191,366.642363 C89.0662415,370.090012 87.1185337,373.393257 84.8429939,376.497946 C83.5946809,378.03809 82.4421474,379.644235 81.3911157,381.308409 L80.5715357,382.932956 C79.3590795,384.901625 79.4281084,387.340353 80.7502329,389.246166 C82.0723573,391.151979 84.424351,392.203102 86.8389123,391.96724 C89.2594097,391.712424 91.3210249,390.204937 92.1710035,388.068328 L92.9712993,386.534034 C93.7041002,384.728983 94.3211958,382.88783 94.8225859,381.028626 C96.5292408,377.084588 97.4548841,372.851742 99.7882766,370.234417 C100.550913,369.563362 101.511919,369.123035 102.545922,368.97088 L103.99224,366.506985 C123.056973,373.366029 144.152422,373.414221 163.252696,366.642363 L164.535098,368.943804 C165.846426,369.12431 167.022765,369.801204 167.813418,370.793983 C169.626136,374.025025 171.091738,377.409497 172.210224,380.902273 C172.72013,382.772506 173.344688,384.613699 174.080795,386.416706 L174.881091,387.951 C175.739256,390.07926 177.80087,391.576643 180.216484,391.82618 C182.632098,392.075718 184.992945,391.035183 186.326285,389.133309 C187.646655,387.21993 187.706288,384.774377 186.480558,382.806602 L185.641694,381.182056 C184.590574,379.523727 183.43803,377.923593 182.189816,376.389643 C179.972129,373.393257 178.06299,370.198315 176.404545,366.849944 C176.091829,365.613119 176.328417,364.31046 177.060209,363.239841 C176.648823,362.452633 176.291343,361.641731 175.989934,360.812046 C193.538589,351.01964 206.651869,335.541321 212.851751,317.310298 L215.590112,317.76156 C216.573608,316.922211 217.865652,316.479974 219.186622,316.516075 C223.014543,317.201994 226.765327,318.321127 230.390763,319.584663 C232.270976,320.396936 234.1994,321.082856 236.15675,321.660472 C236.619571,321.777801 237.29452,321.877079 237.815194,321.994407 L237.940542,321.994407 C240.261395,322.69596 242.806522,322.114312 244.520846,320.490583 C246.235169,318.866853 246.826446,316.477844 246.049563,314.313912 C245.254789,312.151818 243.225112,310.594239 240.804251,310.288646 L238.93368,309.873484 C236.887673,309.612144 234.827267,309.461473 232.762724,309.422221 C228.867309,309.187564 225.010461,308.591897 221.250036,307.644245 C220.092981,307.039553 219.12877,306.137027 218.473106,305.04497 L215.869734,304.32295 C218.645564,285.369825 213.889977,266.122411 202.505758,250.234572 L204.781298,248.267066 C204.684877,247.030605 205.118772,245.80317 205.976921,244.855518 C208.937051,242.47285 212.147876,240.369964 215.522617,238.573938 C217.354952,237.698438 219.132031,236.725114 220.845067,235.658779 L222.252816,234.593798 C224.36822,233.36482 225.540847,231.107354 225.26703,228.791026 C224.993214,226.474698 223.321691,224.5118 220.970414,223.745437 C218.621131,222.980025 216.011033,223.545171 214.2595,225.198504 L212.832467,226.263484 C211.343406,227.585881 209.936563,228.987095 208.618861,230.46023 C206.073342,233.185858 203.257844,235.667804 200.201292,237.888018 C198.967857,238.358068 197.618497,238.495626 196.305877,238.285129 L193.866421,239.909676 C179.788929,226.10103 160.822883,217.527034 140.497298,215.812234 C140.497298,214.909708 140.371951,213.55592 140.352667,213.131732 C139.263107,212.427762 138.50138,211.353756 138.250685,210.135346 C138.116946,206.490532 138.362369,202.842184 138.983486,199.241859 C139.398097,197.346554 139.68736,195.45125 139.870561,193.52887 L139.870561,191.723818 C140.063403,188.258119 137.267189,185.288808 133.554973,185.045126 L133.468194,185 Z M125.426668,231.624488 L123.498244,263.149718 L123.353613,263.149718 C123.257192,265.099174 122.032643,266.759822 120.15243,267.698449 C118.272217,268.637076 116.044887,268.357292 114.367159,267.211085 L86.7424911,248.889809 C95.5351245,240.80612 106.565726,235.18259 118.590406,232.653368 C120.846662,232.202105 123.122202,231.859145 125.407384,231.624488 L125.426668,231.624488 Z M141.509721,231.624488 C156.021108,233.312212 169.529715,239.413287 179.981771,248.989087 L152.61744,267.193034 C150.93007,268.45657 148.615962,268.709278 146.658612,267.842853 C144.701262,266.976428 143.447786,265.135275 143.41886,263.113617 L141.509721,231.624488 Z M76.7146885,260.748999 L101.977037,281.850055 L101.977037,281.985434 C103.548703,283.26702 104.233293,285.261603 103.770471,287.165932 C103.30765,289.070262 101.745627,290.57748 99.7497081,291.09192 L99.7497081,291.182173 L67.3329078,299.909598 C65.7288182,286.239111 69.0330609,272.457819 76.7243307,260.739974 L76.7146885,260.748999 Z M190.0385,260.748999 C197.713626,272.43671 201.107651,286.146078 199.699902,299.801295 L167.234891,291.046794 L167.234891,290.929465 C165.210046,290.415026 163.667308,288.907807 163.214128,287.003478 C162.760948,285.099148 163.435897,283.122616 165.007562,281.822979 L190.077068,260.821201 L190.0385,260.748999 Z M128.290377,283.492652 L138.626727,283.492652 L144.942315,291.001667 L142.647491,300.387937 L133.362131,304.566632 L124.057487,300.387937 L121.868727,291.001667 L128.290377,283.492652 Z M161.40141,309.106337 C161.835305,309.061211 162.365622,309.061211 162.703096,309.106337 L196.132318,314.386114 C191.31126,327.382487 181.794489,338.483555 169.375441,345.911343 L156.455003,316.633403 C155.734127,315.039434 155.885938,313.216953 156.86205,311.746833 C157.838161,310.276713 159.516763,309.342412 161.362841,309.241716 L161.40141,309.106337 Z M105.255357,309.241716 C107.145213,309.268792 108.890436,310.180343 109.922143,311.660485 C110.953849,313.140628 111.117765,314.999831 110.375322,316.624378 L110.375322,316.741716 L97.532021,345.78499 C85.2383207,338.411353 75.9047506,327.445663 70.9390599,314.584669 L104.079019,309.322943 C104.44542,309.286842 104.821462,309.286842 105.197505,309.322943 L105.255357,309.241716 Z M133.256068,321.877079 C135.404453,321.81366 137.407587,322.889069 138.433885,324.656858 L138.559233,324.656858 L154.89298,352.247075 L148.365266,354.052127 C136.351188,356.624326 123.806792,356.019634 112.130187,352.301227 L128.521788,324.71101 C129.514926,323.086463 131.346928,322.093685 133.342847,322.048559 L133.256068,321.877079 Z" id="Shape" fill="#FFFFFF" fill-rule="nonzero" transform="translate(133.386251, 288.500000) rotate(-13.000000) translate(-133.386251, -288.500000) "></path>
            <path d="M201.468194,0 C197.765621,0.243681994 194.959765,3.21299222 195.152607,6.67869169 L195.152607,8.37544039 C195.326165,10.2978206 195.634713,12.2021502 196.039682,14.0884294 C196.631038,17.7005528 196.844176,21.3580939 196.676062,25.0089928 C196.309661,26.2093522 195.57686,27.2923833 194.57408,28.1227072 L194.429448,30.6678302 C190.524391,30.974689 186.648259,31.5342551 182.829981,32.3465284 C166.766212,35.7400258 152.139119,43.5378496 140.848199,54.7742971 L138.534091,53.2400031 C137.261331,53.6010134 135.892151,53.4656345 134.725454,52.8789927 C131.595768,50.7107476 128.699104,48.2623725 126.076475,45.5685329 C124.759091,44.0951345 123.352231,42.6939039 121.862869,41.3717874 L120.435836,40.3068069 C119.163076,39.3501294 117.601053,38.7995886 115.971535,38.7273865 C113.99905,38.6294552 112.095679,39.4212785 110.851571,40.8573477 C108.672452,43.7183548 109.385969,47.6804435 112.432878,49.7291773 L113.76349,50.7219558 C115.4763,51.7886298 117.2534,52.761965 119.085939,53.6371145 C122.499249,55.4150905 125.719716,57.4999253 128.708773,59.9547958 C129.47339,60.9753744 129.91761,62.1758803 129.991175,63.4204953 L132.093156,65.2255471 C120.744383,81.1641545 116.087241,100.469184 118.99916,119.431253 L116.299367,120.153274 C115.595493,121.200204 114.660207,122.093704 113.541721,122.752548 C109.77502,123.694058 105.919213,124.289534 102.029033,124.530524 C99.9644898,124.569776 97.9040836,124.720447 95.8580773,124.981787 L94.1514224,125.342798 L93.95858,125.342798 C91.543318,125.65655 89.5225765,127.216501 88.7337732,129.376191 C87.9449699,131.535882 88.52252,133.92729 90.2270804,135.559391 C91.9477073,137.183291 94.4999193,137.759569 96.822289,137.048559 L96.9476366,137.048559 L98.6832178,136.868053 C100.640568,136.326538 102.568991,135.658669 104.449204,134.900547 C108.064998,133.546758 111.815782,132.508853 115.653345,131.831959 C116.983958,131.904161 118.256717,132.328348 119.336634,133.050369 L122.22927,132.599106 C128.496646,150.803053 141.667779,166.227221 159.255002,175.947425 L158.078664,178.248866 C158.618623,179.304821 158.821107,180.478105 158.657191,181.642363 C157.066242,185.090012 155.118534,188.393257 152.842994,191.497946 C151.594681,193.03809 150.442147,194.644235 149.391116,196.308409 L148.571536,197.932956 C147.35908,199.901625 147.428108,202.340353 148.750233,204.246166 C150.072357,206.151979 152.424351,207.203102 154.838912,206.96724 C157.25941,206.712424 159.321025,205.204937 160.171003,203.068328 L160.971299,201.534034 C161.7041,199.728983 162.321196,197.88783 162.822586,196.028626 C164.529241,192.084588 165.454884,187.851742 167.788277,185.234417 C168.550913,184.563362 169.511919,184.123035 170.545922,183.97088 L171.99224,181.506985 C191.056973,188.366029 212.152422,188.414221 231.252696,181.642363 L232.535098,183.943804 C233.846426,184.12431 235.022765,184.801204 235.813418,185.793983 C237.626136,189.025025 239.091738,192.409497 240.210224,195.902273 C240.72013,197.772506 241.344688,199.613699 242.080795,201.416706 L242.881091,202.951 C243.739256,205.07926 245.80087,206.576643 248.216484,206.82618 C250.632098,207.075718 252.992945,206.035183 254.326285,204.133309 C255.646655,202.21993 255.706288,199.774377 254.480558,197.806602 L253.641694,196.182056 C252.590574,194.523727 251.43803,192.923593 250.189816,191.389643 C247.972129,188.393257 246.06299,185.198315 244.404545,181.849944 C244.091829,180.613119 244.328417,179.31046 245.060209,178.239841 C244.648823,177.452633 244.291343,176.641731 243.989934,175.812046 C261.538589,166.01964 274.651869,150.541321 280.851751,132.310298 L283.590112,132.76156 C284.573608,131.922211 285.865652,131.479974 287.186622,131.516075 C291.014543,132.201994 294.765327,133.321127 298.390763,134.584663 C300.270976,135.396936 302.1994,136.082856 304.15675,136.660472 C304.619571,136.777801 305.29452,136.877079 305.815194,136.994407 L305.940542,136.994407 C308.261395,137.69596 310.806522,137.114312 312.520846,135.490583 C314.235169,133.866853 314.826446,131.477844 314.049563,129.313912 C313.254789,127.151818 311.225112,125.594239 308.804251,125.288646 L306.93368,124.873484 C304.887673,124.612144 302.827267,124.461473 300.762724,124.422221 C296.867309,124.187564 293.010461,123.591897 289.250036,122.644245 C288.092981,122.039553 287.12877,121.137027 286.473106,120.04497 L283.869734,119.32295 C286.645564,100.369825 281.889977,81.1224112 270.505758,65.2345723 L272.781298,63.2670659 C272.684877,62.0306054 273.118772,60.8031701 273.976921,59.8555179 C276.937051,57.4728496 280.147876,55.3699642 283.522617,53.5739377 C285.354952,52.698438 287.132031,51.7251144 288.845067,50.658779 L290.252816,49.5937984 C292.36822,48.3648204 293.540847,46.1073543 293.26703,43.791026 C292.993214,41.4746976 291.321691,39.5118004 288.970414,38.7454371 C286.621131,37.9800248 284.011033,38.5451707 282.2595,40.1985038 L280.832467,41.2634843 C279.343406,42.5858812 277.936563,43.9870952 276.618861,45.4602298 C274.073342,48.185858 271.257844,50.6678042 268.201292,52.888018 C266.967857,53.3580679 265.618497,53.4956261 264.305877,53.2851294 L261.866421,54.909676 C247.788929,41.1010297 228.822883,32.5270336 208.497298,30.8122344 C208.497298,29.9097085 208.371951,28.5559196 208.352667,28.1317324 C207.263107,27.4277622 206.50138,26.3537564 206.250685,25.1353464 C206.116946,21.490532 206.362369,17.8421838 206.983486,14.2418588 C207.398097,12.3465544 207.68736,10.45125 207.870561,8.52886979 L207.870561,6.72381798 C208.063403,3.25811851 205.267189,0.288808289 201.554973,0.0451262952 L201.468194,0 Z M193.426668,46.6244882 L191.498244,78.149718 L191.353613,78.149718 C191.257192,80.099174 190.032643,81.7598216 188.15243,82.6984486 C186.272217,83.6370755 184.044887,83.3572925 182.367159,82.2110846 L154.742491,63.8898087 C163.535124,55.8061201 174.565726,50.18259 186.590406,47.6533677 C188.846662,47.2021048 191.122202,46.8591449 193.407384,46.6244882 L193.426668,46.6244882 Z M209.509721,46.6244882 C224.021108,48.3122116 237.529715,54.4132867 247.981771,63.9890866 L220.61744,82.1930341 C218.93007,83.4565703 216.615962,83.7092776 214.658612,82.8428527 C212.701262,81.9764279 211.447786,80.135275 211.41886,78.113617 L209.509721,46.6244882 Z M144.714689,75.7489991 L169.977037,96.8500547 L169.977037,96.9854336 C171.548703,98.2670204 172.233293,100.261603 171.770471,102.165932 C171.30765,104.070262 169.745627,105.57748 167.749708,106.09192 L167.749708,106.182173 L135.332908,114.909598 C133.728818,101.239111 137.033061,87.4578188 144.724331,75.7399739 L144.714689,75.7489991 Z M258.0385,75.7489991 C265.713626,87.4367096 269.107651,101.146078 267.699902,114.801295 L235.234891,106.046794 L235.234891,105.929465 C233.210046,105.415026 231.667308,103.907807 231.214128,102.003478 C230.760948,100.099148 231.435897,98.1226163 233.007562,96.822979 L258.077068,75.8212012 L258.0385,75.7489991 Z M196.290377,98.4926519 L206.626727,98.4926519 L212.942315,106.001667 L210.647491,115.387937 L201.362131,119.566632 L192.057487,115.387937 L189.868727,106.001667 L196.290377,98.4926519 Z M229.40141,124.106337 C229.835305,124.061211 230.365622,124.061211 230.703096,124.106337 L264.132318,129.386114 C259.31126,142.382487 249.794489,153.483555 237.375441,160.911343 L224.455003,131.633403 C223.734127,130.039434 223.885938,128.216953 224.86205,126.746833 C225.838161,125.276713 227.516763,124.342412 229.362841,124.241716 L229.40141,124.106337 Z M173.255357,124.241716 C175.145213,124.268792 176.890436,125.180343 177.922143,126.660485 C178.953849,128.140628 179.117765,129.999831 178.375322,131.624378 L178.375322,131.741716 L165.532021,160.78499 C153.238321,153.411353 143.904751,142.445663 138.93906,129.584669 L172.079019,124.322943 C172.44542,124.286842 172.821462,124.286842 173.197505,124.322943 L173.255357,124.241716 Z M201.256068,136.877079 C203.404453,136.81366 205.407587,137.889069 206.433885,139.656858 L206.559233,139.656858 L222.89298,167.247075 L216.365266,169.052127 C204.351188,171.624326 191.806792,171.019634 180.130187,167.301227 L196.521788,139.71101 C197.514926,138.086463 199.346928,137.093685 201.342847,137.048559 L201.256068,136.877079 Z" id="Shape" fill="#FFFFFF" fill-rule="nonzero"></path>
            <text id="Metarget" font-family="Optima-Regular, Optima" font-size="70" font-weight="normal" fill="#3D6FDE">
                <tspan x="86.3862514" y="435">Metarget</tspan>
            </text>
        </g>
    </g>
</svg>